<?xml version="1.0" encoding="UTF-8" standalone="no"?>
<!DOCTYPE svg PUBLIC "-//W3C//DTD SVG 1.1//EN"
 "http://www.w3.org/Graphics/SVG/1.1/DTD/svg11.dtd">
<!-- Generated by graphviz version 2.43.0 (0)
 -->
<!-- Title: platform/cpu.h Pages: 1 -->
<svg width="240pt" height="84pt"
 viewBox="0.00 0.00 239.50 84.00" xmlns="http://www.w3.org/2000/svg" xmlns:xlink="http://www.w3.org/1999/xlink">
<g id="graph0" class="graph" transform="scale(1 1) rotate(0) translate(4 80)">
<title>platform/cpu.h</title>
<!-- Node1 -->
<g id="node1" class="node">
<title>Node1</title>
<g id="a_node1"><a xlink:title="Definitions for EBS CPU controls.">
<polygon fill="#bfbfbf" stroke="black" points="68,-56.5 68,-75.5 156,-75.5 156,-56.5 68,-56.5"/>
<text text-anchor="middle" x="112" y="-63.5" font-family="Helvetica,sans-Serif" font-size="10.00">platform/cpu.h</text>
</a>
</g>
</g>
<!-- Node2 -->
<g id="node2" class="node">
<title>Node2</title>
<g id="a_node2"><a xlink:href="debug_8c_source.html" target="_top" xlink:title=" ">
<polygon fill="none" stroke="black" points="0,-0.5 0,-19.5 100,-19.5 100,-0.5 0,-0.5"/>
<text text-anchor="middle" x="50" y="-7.5" font-family="Helvetica,sans-Serif" font-size="10.00">platform/debug.c</text>
</a>
</g>
</g>
<!-- Node1&#45;&gt;Node2 -->
<g id="edge1" class="edge">
<title>Node1&#45;&gt;Node2</title>
<path fill="none" stroke="midnightblue" d="M94.25,-49.54C83.19,-39.91 69.37,-27.87 60.14,-19.83"/>
<polygon fill="midnightblue" stroke="midnightblue" points="92.2,-52.4 102.04,-56.32 96.8,-47.12 92.2,-52.4"/>
</g>
<!-- Node3 -->
<g id="node3" class="node">
<title>Node3</title>
<g id="a_node3"><a xlink:href="platform_8h_source.html" target="_top" xlink:title=" ">
<polygon fill="none" stroke="black" points="118.5,-0.5 118.5,-19.5 231.5,-19.5 231.5,-0.5 118.5,-0.5"/>
<text text-anchor="middle" x="175" y="-7.5" font-family="Helvetica,sans-Serif" font-size="10.00">platform/platform.h</text>
</a>
</g>
</g>
<!-- Node1&#45;&gt;Node3 -->
<g id="edge2" class="edge">
<title>Node1&#45;&gt;Node3</title>
<path fill="none" stroke="midnightblue" d="M130.04,-49.54C141.27,-39.91 155.32,-27.87 164.69,-19.83"/>
<polygon fill="midnightblue" stroke="midnightblue" points="127.44,-47.16 122.12,-56.32 131.99,-52.47 127.44,-47.16"/>
</g>
</g>
</svg>
