<?xml version="1.0" encoding="UTF-8" standalone="no"?>
<!DOCTYPE svg PUBLIC "-//W3C//DTD SVG 1.1//EN"
 "http://www.w3.org/Graphics/SVG/1.1/DTD/svg11.dtd">
<!-- Generated by graphviz version 2.43.0 (0)
 -->
<!-- Title: platform/debug.c Pages: 1 -->
<svg width="372pt" height="192pt"
 viewBox="0.00 0.00 372.00 192.00" xmlns="http://www.w3.org/2000/svg" xmlns:xlink="http://www.w3.org/1999/xlink">

<svg id="main" version="1.1" xmlns="http://www.w3.org/2000/svg" xmlns:xlink="http://www.w3.org/1999/xlink" xml:space="preserve" onload="init(evt)">
<style type="text/css"><![CDATA[
.node, .edge {opacity: 0.7;}
.node.selected, .edge.selected {opacity: 1;}
.edge:hover path { stroke: red; }
.edge:hover polygon { stroke: red; fill: red; }
]]></style>
<script type="application/ecmascript" xlink:href="svg.min.js"/>
<svg id="graph" class="graph">
<g id="graph0" class="graph" transform="scale(1 1) rotate(0) translate(4 188)">
<title>platform/debug.c</title>
<!-- Node1 -->
<g id="Node000001" class="node">
<title>Node1</title>
<g id="a_Node000001"><a xlink:title=" ">
<polygon fill="#999999" stroke="#666666" points="242,-184 142,-184 142,-165 242,-165 242,-184"/>
<text text-anchor="middle" x="192" y="-172" font-family="Helvetica,sans-Serif" font-size="10.00">platform/debug.c</text>
</a>
</g>
</g>
<!-- Node2 -->
<g id="Node000002" class="node">
<title>Node2</title>
<g id="a_Node000002"><a xlink:href="cpu_8h.html" target="_top" xlink:title="Definitions for EBS CPU controls.">
<polygon fill="white" stroke="#666666" points="74.5,-129 31.5,-129 31.5,-110 74.5,-110 74.5,-129"/>
<text text-anchor="middle" x="53" y="-117" font-family="Helvetica,sans-Serif" font-size="10.00">cpu.h</text>
</a>
</g>
</g>
<!-- Node1&#45;&gt;Node2 -->
<g id="edge1_Node000001_Node000002" class="edge">
<title>Node1&#45;&gt;Node2</title>
<g id="a_edge1_Node000001_Node000002"><a xlink:title=" ">
<path fill="none" stroke="#63b8ff" d="M169.67,-164.98C146.53,-156.16 110.19,-142.31 84.22,-132.4"/>
<polygon fill="#63b8ff" stroke="#63b8ff" points="85.41,-129.11 74.82,-128.82 82.92,-135.65 85.41,-129.11"/>
</a>
</g>
</g>
<!-- Node4 -->
<g id="Node000004" class="node">
<title>Node4</title>
<g id="a_Node000004"><a xlink:href="debug_8h.html" target="_top" xlink:title=" ">
<polygon fill="white" stroke="#666666" points="220,-129 164,-129 164,-110 220,-110 220,-129"/>
<text text-anchor="middle" x="192" y="-117" font-family="Helvetica,sans-Serif" font-size="10.00">debug.h</text>
</a>
</g>
</g>
<!-- Node1&#45;&gt;Node4 -->
<g id="edge3_Node000001_Node000004" class="edge">
<title>Node1&#45;&gt;Node4</title>
<g id="a_edge3_Node000001_Node000004"><a xlink:title=" ">
<path fill="none" stroke="#63b8ff" d="M192,-164.75C192,-157.8 192,-147.85 192,-139.13"/>
<polygon fill="#63b8ff" stroke="#63b8ff" points="195.5,-139.09 192,-129.09 188.5,-139.09 195.5,-139.09"/>
</a>
</g>
</g>
<!-- Node5 -->
<g id="Node000005" class="node">
<title>Node5</title>
<g id="a_Node000005"><a xlink:title=" ">
<polygon fill="#e0e0e0" stroke="#999999" points="154,-74 74,-74 74,-55 154,-55 154,-74"/>
<text text-anchor="middle" x="114" y="-62" font-family="Helvetica,sans-Serif" font-size="10.00">application.h</text>
</a>
</g>
</g>
<!-- Node1&#45;&gt;Node5 -->
<g id="edge10_Node000001_Node000005" class="edge">
<title>Node1&#45;&gt;Node5</title>
<g id="a_edge10_Node000001_Node000005"><a xlink:title=" ">
<path fill="none" stroke="#63b8ff" d="M184.31,-164.89C176.59,-156.1 164.52,-141.96 155,-129 143.98,-114 132.59,-96.13 124.61,-83.17"/>
<polygon fill="#63b8ff" stroke="#63b8ff" points="127.44,-81.07 119.25,-74.35 121.46,-84.71 127.44,-81.07"/>
</a>
</g>
</g>
<!-- Node7 -->
<g id="Node000007" class="node">
<title>Node7</title>
<g id="a_Node000007"><a xlink:href="types_8h.html" target="_top" xlink:title=" ">
<polygon fill="white" stroke="#666666" points="344,-74 246,-74 246,-55 344,-55 344,-74"/>
<text text-anchor="middle" x="295" y="-62" font-family="Helvetica,sans-Serif" font-size="10.00">platform/types.h</text>
</a>
</g>
</g>
<!-- Node1&#45;&gt;Node7 -->
<g id="edge9_Node000001_Node000007" class="edge">
<title>Node1&#45;&gt;Node7</title>
<g id="a_edge9_Node000001_Node000007"><a xlink:title=" ">
<path fill="none" stroke="#63b8ff" d="M200.43,-164.66C217.79,-146.46 257.76,-104.55 279.77,-81.47"/>
<polygon fill="#63b8ff" stroke="#63b8ff" points="282.37,-83.81 286.74,-74.16 277.31,-78.98 282.37,-83.81"/>
</a>
</g>
</g>
<!-- Node10 -->
<g id="Node000010" class="node">
<title>Node10</title>
<g id="a_Node000010"><a xlink:title=" ">
<polygon fill="#e0e0e0" stroke="#999999" points="353.5,-129 276.5,-129 276.5,-110 353.5,-110 353.5,-129"/>
<text text-anchor="middle" x="315" y="-117" font-family="Helvetica,sans-Serif" font-size="10.00">hal/uc/uart.h</text>
</a>
</g>
</g>
<!-- Node1&#45;&gt;Node10 -->
<g id="edge11_Node000001_Node000010" class="edge">
<title>Node1&#45;&gt;Node10</title>
<g id="a_edge11_Node000001_Node000010"><a xlink:title=" ">
<path fill="none" stroke="#63b8ff" d="M211.76,-164.98C231.73,-156.38 262.8,-142.99 285.65,-133.15"/>
<polygon fill="#63b8ff" stroke="#63b8ff" points="287.08,-136.34 294.88,-129.17 284.31,-129.91 287.08,-136.34"/>
</a>
</g>
</g>
<!-- Node3 -->
<g id="Node000003" class="node">
<title>Node3</title>
<g id="a_Node000003"><a xlink:title=" ">
<polygon fill="#e0e0e0" stroke="#999999" points="56,-74 0,-74 0,-55 56,-55 56,-74"/>
<text text-anchor="middle" x="28" y="-62" font-family="Helvetica,sans-Serif" font-size="10.00">iomap.h</text>
</a>
</g>
</g>
<!-- Node2&#45;&gt;Node3 -->
<g id="edge2_Node000002_Node000003" class="edge">
<title>Node2&#45;&gt;Node3</title>
<g id="a_edge2_Node000002_Node000003"><a xlink:title=" ">
<path fill="none" stroke="#63b8ff" d="M48.87,-109.75C45.49,-102.57 40.58,-92.18 36.38,-83.27"/>
<polygon fill="#63b8ff" stroke="#63b8ff" points="39.48,-81.64 32.05,-74.09 33.15,-84.63 39.48,-81.64"/>
</a>
</g>
</g>
<!-- Node4&#45;&gt;Node5 -->
<g id="edge4_Node000004_Node000005" class="edge">
<title>Node4&#45;&gt;Node5</title>
<g id="a_edge4_Node000004_Node000005"><a xlink:title=" ">
<path fill="none" stroke="#63b8ff" d="M179.47,-109.98C167.6,-101.92 149.54,-89.65 135.39,-80.03"/>
<polygon fill="#63b8ff" stroke="#63b8ff" points="137,-76.9 126.76,-74.17 133.06,-82.69 137,-76.9"/>
</a>
</g>
</g>
<!-- Node6 -->
<g id="Node000006" class="node">
<title>Node6</title>
<g id="a_Node000006"><a xlink:title=" ">
<polygon fill="#e0e0e0" stroke="#999999" points="228,-74 172,-74 172,-55 228,-55 228,-74"/>
<text text-anchor="middle" x="200" y="-62" font-family="Helvetica,sans-Serif" font-size="10.00">stdarg.h</text>
</a>
</g>
</g>
<!-- Node4&#45;&gt;Node6 -->
<g id="edge5_Node000004_Node000006" class="edge">
<title>Node4&#45;&gt;Node6</title>
<g id="a_edge5_Node000004_Node000006"><a xlink:title=" ">
<path fill="none" stroke="#63b8ff" d="M193.32,-109.75C194.37,-102.8 195.87,-92.85 197.19,-84.13"/>
<polygon fill="#63b8ff" stroke="#63b8ff" points="200.67,-84.5 198.7,-74.09 193.75,-83.45 200.67,-84.5"/>
</a>
</g>
</g>
<!-- Node4&#45;&gt;Node7 -->
<g id="edge6_Node000004_Node000007" class="edge">
<title>Node4&#45;&gt;Node7</title>
<g id="a_edge6_Node000004_Node000007"><a xlink:title=" ">
<path fill="none" stroke="#63b8ff" d="M208.55,-109.98C224.89,-101.57 250.13,-88.59 269.13,-78.81"/>
<polygon fill="#63b8ff" stroke="#63b8ff" points="270.86,-81.86 278.15,-74.17 267.66,-75.63 270.86,-81.86"/>
</a>
</g>
</g>
<!-- Node8 -->
<g id="Node000008" class="node">
<title>Node8</title>
<g id="a_Node000008"><a xlink:title=" ">
<polygon fill="#e0e0e0" stroke="#999999" points="283.5,-19 230.5,-19 230.5,0 283.5,0 283.5,-19"/>
<text text-anchor="middle" x="257" y="-7" font-family="Helvetica,sans-Serif" font-size="10.00">stdint.h</text>
</a>
</g>
</g>
<!-- Node7&#45;&gt;Node8 -->
<g id="edge7_Node000007_Node000008" class="edge">
<title>Node7&#45;&gt;Node8</title>
<g id="a_edge7_Node000007_Node000008"><a xlink:title=" ">
<path fill="none" stroke="#63b8ff" d="M288.73,-54.75C283.41,-47.34 275.64,-36.5 269.12,-27.41"/>
<polygon fill="#63b8ff" stroke="#63b8ff" points="271.83,-25.18 263.16,-19.09 266.14,-29.26 271.83,-25.18"/>
</a>
</g>
</g>
<!-- Node9 -->
<g id="Node000009" class="node">
<title>Node9</title>
<g id="a_Node000009"><a xlink:title=" ">
<polygon fill="#e0e0e0" stroke="#999999" points="364,-19 302,-19 302,0 364,0 364,-19"/>
<text text-anchor="middle" x="333" y="-7" font-family="Helvetica,sans-Serif" font-size="10.00">stdbool.h</text>
</a>
</g>
</g>
<!-- Node7&#45;&gt;Node9 -->
<g id="edge8_Node000007_Node000009" class="edge">
<title>Node7&#45;&gt;Node9</title>
<g id="a_edge8_Node000007_Node000009"><a xlink:title=" ">
<path fill="none" stroke="#63b8ff" d="M301.27,-54.75C306.59,-47.34 314.36,-36.5 320.88,-27.41"/>
<polygon fill="#63b8ff" stroke="#63b8ff" points="323.86,-29.26 326.84,-19.09 318.17,-25.18 323.86,-29.26"/>
</a>
</g>
</g>
</g>
</svg>
</svg>

<style type='text/css'>
<![CDATA[
[data-mouse-over-selected='false'] { opacity: 0.7; }
[data-mouse-over-selected='true']  { opacity: 1.0; }
]]>
</style>
<script type="application/ecmascript"><![CDATA[
document.addEventListener('DOMContentLoaded', (event) => {
  highlightEdges();
  highlightAdjacentNodes();
});
]]></script>
</svg>
