<?xml version="1.0" encoding="UTF-8" standalone="no"?>
<!DOCTYPE svg PUBLIC "-//W3C//DTD SVG 1.1//EN"
 "http://www.w3.org/Graphics/SVG/1.1/DTD/svg11.dtd">
<!-- Generated by graphviz version 2.43.0 (0)
 -->
<!-- Title: platform/platform.h Pages: 1 -->
<svg width="479pt" height="192pt"
 viewBox="0.00 0.00 479.00 192.00" xmlns="http://www.w3.org/2000/svg" xmlns:xlink="http://www.w3.org/1999/xlink">

<svg id="main" version="1.1" xmlns="http://www.w3.org/2000/svg" xmlns:xlink="http://www.w3.org/1999/xlink" xml:space="preserve" onload="init(evt)">
<style type="text/css"><![CDATA[
.node, .edge {opacity: 0.7;}
.node.selected, .edge.selected {opacity: 1;}
.edge:hover path { stroke: red; }
.edge:hover polygon { stroke: red; fill: red; }
]]></style>
<script type="application/ecmascript" xlink:href="svg.min.js"/>
<svg id="graph" class="graph">
<g id="graph0" class="graph" transform="scale(1 1) rotate(0) translate(4 188)">
<title>platform/platform.h</title>
<!-- Node1 -->
<g id="Node000001" class="node">
<title>Node1</title>
<g id="a_Node000001"><a xlink:title=" ">
<polygon fill="#999999" stroke="#666666" points="288,-184 175,-184 175,-165 288,-165 288,-184"/>
<text text-anchor="middle" x="231.5" y="-172" font-family="Helvetica,sans-Serif" font-size="10.00">platform/platform.h</text>
</a>
</g>
</g>
<!-- Node2 -->
<g id="Node000002" class="node">
<title>Node2</title>
<g id="a_Node000002"><a xlink:href="config_8h.html" target="_top" xlink:title=" ">
<polygon fill="white" stroke="#666666" points="55,-129 0,-129 0,-110 55,-110 55,-129"/>
<text text-anchor="middle" x="27.5" y="-117" font-family="Helvetica,sans-Serif" font-size="10.00">config.h</text>
</a>
</g>
</g>
<!-- Node1&#45;&gt;Node2 -->
<g id="edge1_Node000001_Node000002" class="edge">
<title>Node1&#45;&gt;Node2</title>
<g id="a_edge1_Node000001_Node000002"><a xlink:title=" ">
<path fill="none" stroke="#63b8ff" d="M198.72,-164.98C162.23,-155.5 103.34,-140.2 65.03,-130.25"/>
<polygon fill="#63b8ff" stroke="#63b8ff" points="65.84,-126.84 55.28,-127.72 64.08,-133.62 65.84,-126.84"/>
</a>
</g>
</g>
<!-- Node3 -->
<g id="Node000003" class="node">
<title>Node3</title>
<g id="a_Node000003"><a xlink:href="types_8h.html" target="_top" xlink:title=" ">
<polygon fill="white" stroke="#666666" points="353,-74 300,-74 300,-55 353,-55 353,-74"/>
<text text-anchor="middle" x="326.5" y="-62" font-family="Helvetica,sans-Serif" font-size="10.00">types.h</text>
</a>
</g>
</g>
<!-- Node1&#45;&gt;Node3 -->
<g id="edge2_Node000001_Node000003" class="edge">
<title>Node1&#45;&gt;Node3</title>
<g id="a_edge2_Node000001_Node000003"><a xlink:title=" ">
<path fill="none" stroke="#63b8ff" d="M252.79,-164.98C268.75,-157.62 290.06,-145.54 303.5,-129 314.01,-116.06 319.94,-97.91 323.14,-84.32"/>
<polygon fill="#63b8ff" stroke="#63b8ff" points="326.63,-84.7 325.22,-74.2 319.78,-83.29 326.63,-84.7"/>
</a>
</g>
</g>
<!-- Node5 -->
<g id="Node000005" class="node">
<title>Node5</title>
<g id="a_Node000005"><a xlink:href="cpu_8h.html" target="_top" xlink:title="Definitions for EBS CPU controls.">
<polygon fill="white" stroke="#666666" points="116,-129 73,-129 73,-110 116,-110 116,-129"/>
<text text-anchor="middle" x="94.5" y="-117" font-family="Helvetica,sans-Serif" font-size="10.00">cpu.h</text>
</a>
</g>
</g>
<!-- Node1&#45;&gt;Node5 -->
<g id="edge4_Node000001_Node000005" class="edge">
<title>Node1&#45;&gt;Node5</title>
<g id="a_edge4_Node000001_Node000005"><a xlink:title=" ">
<path fill="none" stroke="#63b8ff" d="M209.49,-164.98C186.79,-156.2 151.18,-142.43 125.61,-132.53"/>
<polygon fill="#63b8ff" stroke="#63b8ff" points="126.59,-129.16 116.01,-128.82 124.07,-135.69 126.59,-129.16"/>
</a>
</g>
</g>
<!-- Node7 -->
<g id="Node000007" class="node">
<title>Node7</title>
<g id="a_Node000007"><a xlink:href="asm_8h.html" target="_top" xlink:title="Helper Definitions for ASM files.">
<polygon fill="white" stroke="#666666" points="220,-129 173,-129 173,-110 220,-110 220,-129"/>
<text text-anchor="middle" x="196.5" y="-117" font-family="Helvetica,sans-Serif" font-size="10.00">asm.h</text>
</a>
</g>
</g>
<!-- Node1&#45;&gt;Node7 -->
<g id="edge6_Node000001_Node000007" class="edge">
<title>Node1&#45;&gt;Node7</title>
<g id="a_edge6_Node000001_Node000007"><a xlink:title=" ">
<path fill="none" stroke="#63b8ff" d="M225.72,-164.75C220.88,-157.42 213.82,-146.73 207.86,-137.7"/>
<polygon fill="#63b8ff" stroke="#63b8ff" points="210.6,-135.5 202.17,-129.09 204.76,-139.36 210.6,-135.5"/>
</a>
</g>
</g>
<!-- Node8 -->
<g id="Node000008" class="node">
<title>Node8</title>
<g id="a_Node000008"><a xlink:href="debug_8h.html" target="_top" xlink:title=" ">
<polygon fill="white" stroke="#666666" points="294.5,-129 238.5,-129 238.5,-110 294.5,-110 294.5,-129"/>
<text text-anchor="middle" x="266.5" y="-117" font-family="Helvetica,sans-Serif" font-size="10.00">debug.h</text>
</a>
</g>
</g>
<!-- Node1&#45;&gt;Node8 -->
<g id="edge7_Node000001_Node000008" class="edge">
<title>Node1&#45;&gt;Node8</title>
<g id="a_edge7_Node000001_Node000008"><a xlink:title=" ">
<path fill="none" stroke="#63b8ff" d="M237.28,-164.75C242.12,-157.42 249.18,-146.73 255.14,-137.7"/>
<polygon fill="#63b8ff" stroke="#63b8ff" points="258.24,-139.36 260.83,-129.09 252.4,-135.5 258.24,-139.36"/>
</a>
</g>
</g>
<!-- Node10 -->
<g id="Node000010" class="node">
<title>Node10</title>
<g id="a_Node000010"><a xlink:href="romem_8h.html" target="_top" xlink:title=" ">
<polygon fill="white" stroke="#666666" points="471,-74 410,-74 410,-55 471,-55 471,-74"/>
<text text-anchor="middle" x="440.5" y="-62" font-family="Helvetica,sans-Serif" font-size="10.00">romem.h</text>
</a>
</g>
</g>
<!-- Node1&#45;&gt;Node10 -->
<g id="edge10_Node000001_Node000010" class="edge">
<title>Node1&#45;&gt;Node10</title>
<g id="a_edge10_Node000001_Node000010"><a xlink:title=" ">
<path fill="none" stroke="#63b8ff" d="M288.43,-166.52C337.18,-159.43 402.44,-146.94 421.5,-129 433.67,-117.55 438.14,-98.66 439.74,-84.46"/>
<polygon fill="#63b8ff" stroke="#63b8ff" points="443.24,-84.53 440.5,-74.3 436.26,-84.01 443.24,-84.53"/>
</a>
</g>
</g>
<!-- Node11 -->
<g id="Node000011" class="node">
<title>Node11</title>
<g id="a_Node000011"><a xlink:href="transport_8h.html" target="_top" xlink:title="Definitions for EBS transports.">
<polygon fill="white" stroke="#666666" points="207.5,-74 137.5,-74 137.5,-55 207.5,-55 207.5,-74"/>
<text text-anchor="middle" x="172.5" y="-62" font-family="Helvetica,sans-Serif" font-size="10.00">transport.h</text>
</a>
</g>
</g>
<!-- Node1&#45;&gt;Node11 -->
<g id="edge12_Node000001_Node000011" class="edge">
<title>Node1&#45;&gt;Node11</title>
<g id="a_edge12_Node000001_Node000011"><a xlink:title=" ">
<path fill="none" stroke="#63b8ff" d="M207.72,-164.92C192.07,-157.89 172.83,-146.25 163.5,-129 155.98,-115.09 159.57,-97.07 164.26,-83.78"/>
<polygon fill="#63b8ff" stroke="#63b8ff" points="167.59,-84.89 168.07,-74.31 161.1,-82.28 167.59,-84.89"/>
</a>
</g>
</g>
<!-- Node12 -->
<g id="Node000012" class="node">
<title>Node12</title>
<g id="a_Node000012"><a xlink:href="storage_8h.html" target="_top" xlink:title=" ">
<polygon fill="white" stroke="#666666" points="412.5,-129 350.5,-129 350.5,-110 412.5,-110 412.5,-129"/>
<text text-anchor="middle" x="381.5" y="-117" font-family="Helvetica,sans-Serif" font-size="10.00">storage.h</text>
</a>
</g>
</g>
<!-- Node1&#45;&gt;Node12 -->
<g id="edge14_Node000001_Node000012" class="edge">
<title>Node1&#45;&gt;Node12</title>
<g id="a_edge14_Node000001_Node000012"><a xlink:title=" ">
<path fill="none" stroke="#63b8ff" d="M255.6,-164.98C280.38,-156.23 319.2,-142.51 347.19,-132.62"/>
<polygon fill="#63b8ff" stroke="#63b8ff" points="348.7,-135.8 356.96,-129.17 346.37,-129.2 348.7,-135.8"/>
</a>
</g>
</g>
<!-- Node4 -->
<g id="Node000004" class="node">
<title>Node4</title>
<g id="a_Node000004"><a xlink:title=" ">
<polygon fill="#e0e0e0" stroke="#999999" points="380,-19 327,-19 327,0 380,0 380,-19"/>
<text text-anchor="middle" x="353.5" y="-7" font-family="Helvetica,sans-Serif" font-size="10.00">stdint.h</text>
</a>
</g>
</g>
<!-- Node3&#45;&gt;Node4 -->
<g id="edge3_Node000003_Node000004" class="edge">
<title>Node3&#45;&gt;Node4</title>
<g id="a_edge3_Node000003_Node000004"><a xlink:title=" ">
<path fill="none" stroke="#63b8ff" d="M330.96,-54.75C334.62,-47.57 339.91,-37.18 344.45,-28.27"/>
<polygon fill="#63b8ff" stroke="#63b8ff" points="347.7,-29.59 349.12,-19.09 341.47,-26.41 347.7,-29.59"/>
</a>
</g>
</g>
<!-- Node6 -->
<g id="Node000006" class="node">
<title>Node6</title>
<g id="a_Node000006"><a xlink:title=" ">
<polygon fill="#e0e0e0" stroke="#999999" points="119.5,-74 63.5,-74 63.5,-55 119.5,-55 119.5,-74"/>
<text text-anchor="middle" x="91.5" y="-62" font-family="Helvetica,sans-Serif" font-size="10.00">iomap.h</text>
</a>
</g>
</g>
<!-- Node5&#45;&gt;Node6 -->
<g id="edge5_Node000005_Node000006" class="edge">
<title>Node5&#45;&gt;Node6</title>
<g id="a_edge5_Node000005_Node000006"><a xlink:title=" ">
<path fill="none" stroke="#63b8ff" d="M94,-109.75C93.61,-102.8 93.05,-92.85 92.55,-84.13"/>
<polygon fill="#63b8ff" stroke="#63b8ff" points="96.05,-83.88 91.99,-74.09 89.06,-84.27 96.05,-83.88"/>
</a>
</g>
</g>
<!-- Node8&#45;&gt;Node3 -->
<g id="edge9_Node000008_Node000003" class="edge">
<title>Node8&#45;&gt;Node3</title>
<g id="a_edge9_Node000008_Node000003"><a xlink:title=" ">
<path fill="none" stroke="#63b8ff" d="M276.14,-109.98C285.01,-102.15 298.37,-90.34 309.11,-80.86"/>
<polygon fill="#63b8ff" stroke="#63b8ff" points="311.51,-83.41 316.68,-74.17 306.87,-78.17 311.51,-83.41"/>
</a>
</g>
</g>
<!-- Node9 -->
<g id="Node000009" class="node">
<title>Node9</title>
<g id="a_Node000009"><a xlink:title=" ">
<polygon fill="#e0e0e0" stroke="#999999" points="281.5,-74 225.5,-74 225.5,-55 281.5,-55 281.5,-74"/>
<text text-anchor="middle" x="253.5" y="-62" font-family="Helvetica,sans-Serif" font-size="10.00">stdarg.h</text>
</a>
</g>
</g>
<!-- Node8&#45;&gt;Node9 -->
<g id="edge8_Node000008_Node000009" class="edge">
<title>Node8&#45;&gt;Node9</title>
<g id="a_edge8_Node000008_Node000009"><a xlink:title=" ">
<path fill="none" stroke="#63b8ff" d="M264.35,-109.75C262.63,-102.72 260.15,-92.62 258,-83.84"/>
<polygon fill="#63b8ff" stroke="#63b8ff" points="261.39,-82.97 255.61,-74.09 254.59,-84.63 261.39,-82.97"/>
</a>
</g>
</g>
<!-- Node10&#45;&gt;Node4 -->
<g id="edge11_Node000010_Node000004" class="edge">
<title>Node10&#45;&gt;Node4</title>
<g id="a_edge11_Node000010_Node000004"><a xlink:title=" ">
<path fill="none" stroke="#63b8ff" d="M426.52,-54.98C413.03,-46.77 392.37,-34.18 376.46,-24.49"/>
<polygon fill="#63b8ff" stroke="#63b8ff" points="378.09,-21.38 367.73,-19.17 374.45,-27.36 378.09,-21.38"/>
</a>
</g>
</g>
<!-- Node11&#45;&gt;Node4 -->
<g id="edge13_Node000011_Node000004" class="edge">
<title>Node11&#45;&gt;Node4</title>
<g id="a_edge13_Node000011_Node000004"><a xlink:title=" ">
<path fill="none" stroke="#63b8ff" d="M201.58,-54.98C232.92,-45.81 282.85,-31.19 316.85,-21.23"/>
<polygon fill="#63b8ff" stroke="#63b8ff" points="318.24,-24.47 326.85,-18.3 316.27,-17.75 318.24,-24.47"/>
</a>
</g>
</g>
<!-- Node12&#45;&gt;Node3 -->
<g id="edge16_Node000012_Node000003" class="edge">
<title>Node12&#45;&gt;Node3</title>
<g id="a_edge16_Node000012_Node000003"><a xlink:title=" ">
<path fill="none" stroke="#63b8ff" d="M372.42,-109.75C364.41,-102.03 352.54,-90.6 342.88,-81.28"/>
<polygon fill="#63b8ff" stroke="#63b8ff" points="345.04,-78.51 335.41,-74.09 340.19,-83.55 345.04,-78.51"/>
</a>
</g>
</g>
<!-- Node12&#45;&gt;Node4 -->
<g id="edge15_Node000012_Node000004" class="edge">
<title>Node12&#45;&gt;Node4</title>
<g id="a_edge15_Node000012_Node000004"><a xlink:title=" ">
<path fill="none" stroke="#63b8ff" d="M379.21,-109.66C374.65,-92.09 364.38,-52.45 358.28,-28.95"/>
<polygon fill="#63b8ff" stroke="#63b8ff" points="361.64,-27.96 355.74,-19.16 354.87,-29.72 361.64,-27.96"/>
</a>
</g>
</g>
</g>
</svg>
</svg>

<style type='text/css'>
<![CDATA[
[data-mouse-over-selected='false'] { opacity: 0.7; }
[data-mouse-over-selected='true']  { opacity: 1.0; }
]]>
</style>
<script type="application/ecmascript"><![CDATA[
document.addEventListener('DOMContentLoaded', (event) => {
  highlightEdges();
  highlightAdjacentNodes();
});
]]></script>
</svg>
