<?xml version="1.0" encoding="UTF-8" standalone="no"?>
<!DOCTYPE svg PUBLIC "-//W3C//DTD SVG 1.1//EN"
 "http://www.w3.org/Graphics/SVG/1.1/DTD/svg11.dtd">
<!-- Generated by graphviz version 2.43.0 (0)
 -->
<!-- Title: platform/platform.h Pages: 1 -->
<svg width="530pt" height="192pt"
 viewBox="0.00 0.00 529.50 192.00" xmlns="http://www.w3.org/2000/svg" xmlns:xlink="http://www.w3.org/1999/xlink">
<g id="graph0" class="graph" transform="scale(1 1) rotate(0) translate(4 188)">
<title>platform/platform.h</title>
<!-- Node1 -->
<g id="Node000001" class="node">
<title>Node1</title>
<g id="a_Node000001"><a xlink:title=" ">
<polygon fill="#999999" stroke="#666666" points="315,-184 202,-184 202,-165 315,-165 315,-184"/>
<text text-anchor="middle" x="258.5" y="-172" font-family="Helvetica,sans-Serif" font-size="10.00">platform/platform.h</text>
</a>
</g>
</g>
<!-- Node2 -->
<g id="Node000002" class="node">
<title>Node2</title>
<g id="a_Node000002"><a xlink:href="config_8h.html" target="_top" xlink:title=" ">
<polygon fill="white" stroke="#666666" points="55,-129 0,-129 0,-110 55,-110 55,-129"/>
<text text-anchor="middle" x="27.5" y="-117" font-family="Helvetica,sans-Serif" font-size="10.00">config.h</text>
</a>
</g>
</g>
<!-- Node1&#45;&gt;Node2 -->
<g id="edge1_Node000001_Node000002" class="edge">
<title>Node1&#45;&gt;Node2</title>
<g id="a_edge1_Node000001_Node000002"><a xlink:title=" ">
<path fill="none" stroke="#63b8ff" d="M220.73,-164.97C183.51,-156.54 124.74,-143.18 65,-129.34"/>
<polygon fill="#63b8ff" stroke="#63b8ff" points="65.54,-125.87 55.01,-127.02 63.96,-132.69 65.54,-125.87"/>
</a>
</g>
</g>
<!-- Node3 -->
<g id="Node000003" class="node">
<title>Node3</title>
<g id="a_Node000003"><a xlink:href="types_8h.html" target="_top" xlink:title=" ">
<polygon fill="white" stroke="#666666" points="315,-74 262,-74 262,-55 315,-55 315,-74"/>
<text text-anchor="middle" x="288.5" y="-62" font-family="Helvetica,sans-Serif" font-size="10.00">types.h</text>
</a>
</g>
</g>
<!-- Node1&#45;&gt;Node3 -->
<g id="edge2_Node000001_Node000003" class="edge">
<title>Node1&#45;&gt;Node3</title>
<g id="a_edge2_Node000001_Node000003"><a xlink:title=" ">
<path fill="none" stroke="#63b8ff" d="M260.96,-164.66C265.84,-147.09 276.85,-107.45 283.37,-83.95"/>
<polygon fill="#63b8ff" stroke="#63b8ff" points="286.79,-84.73 286.09,-74.16 280.05,-82.86 286.79,-84.73"/>
</a>
</g>
</g>
<!-- Node5 -->
<g id="Node000005" class="node">
<title>Node5</title>
<g id="a_Node000005"><a xlink:href="cpu_8h.html" target="_top" xlink:title="Definitions for EBS CPU controls.">
<polygon fill="white" stroke="#666666" points="116,-129 73,-129 73,-110 116,-110 116,-129"/>
<text text-anchor="middle" x="94.5" y="-117" font-family="Helvetica,sans-Serif" font-size="10.00">cpu.h</text>
</a>
</g>
</g>
<!-- Node1&#45;&gt;Node5 -->
<g id="edge4_Node000001_Node000005" class="edge">
<title>Node1&#45;&gt;Node5</title>
<g id="a_edge4_Node000001_Node000005"><a xlink:title=" ">
<path fill="none" stroke="#63b8ff" d="M232.15,-164.98C203.19,-155.63 156.7,-140.6 125.88,-130.64"/>
<polygon fill="#63b8ff" stroke="#63b8ff" points="126.66,-127.22 116.07,-127.47 124.51,-133.88 126.66,-127.22"/>
</a>
</g>
</g>
<!-- Node7 -->
<g id="Node000007" class="node">
<title>Node7</title>
<g id="a_Node000007"><a xlink:href="asm_8h.html" target="_top" xlink:title="Helper Definitions for ASM files.">
<polygon fill="white" stroke="#666666" points="256,-129 209,-129 209,-110 256,-110 256,-129"/>
<text text-anchor="middle" x="232.5" y="-117" font-family="Helvetica,sans-Serif" font-size="10.00">asm.h</text>
</a>
</g>
</g>
<!-- Node1&#45;&gt;Node7 -->
<g id="edge6_Node000001_Node000007" class="edge">
<title>Node1&#45;&gt;Node7</title>
<g id="a_edge6_Node000001_Node000007"><a xlink:title=" ">
<path fill="none" stroke="#63b8ff" d="M254.21,-164.75C250.69,-157.57 245.59,-147.18 241.22,-138.27"/>
<polygon fill="#63b8ff" stroke="#63b8ff" points="244.26,-136.53 236.71,-129.09 237.98,-139.61 244.26,-136.53"/>
</a>
</g>
</g>
<!-- Node8 -->
<g id="Node000008" class="node">
<title>Node8</title>
<g id="a_Node000008"><a xlink:href="debug_8h.html" target="_top" xlink:title=" ">
<polygon fill="white" stroke="#666666" points="190.5,-129 134.5,-129 134.5,-110 190.5,-110 190.5,-129"/>
<text text-anchor="middle" x="162.5" y="-117" font-family="Helvetica,sans-Serif" font-size="10.00">debug.h</text>
</a>
</g>
</g>
<!-- Node1&#45;&gt;Node8 -->
<g id="edge7_Node000001_Node000008" class="edge">
<title>Node1&#45;&gt;Node8</title>
<g id="a_edge7_Node000001_Node000008"><a xlink:title=" ">
<path fill="none" stroke="#63b8ff" d="M243.08,-164.98C228.05,-156.69 204.96,-143.94 187.34,-134.22"/>
<polygon fill="#63b8ff" stroke="#63b8ff" points="188.65,-130.94 178.2,-129.17 185.27,-137.07 188.65,-130.94"/>
</a>
</g>
</g>
<!-- Node11 -->
<g id="Node000011" class="node">
<title>Node11</title>
<g id="a_Node000011"><a xlink:href="romem_8h.html" target="_top" xlink:title=" ">
<polygon fill="white" stroke="#666666" points="433,-74 372,-74 372,-55 433,-55 433,-74"/>
<text text-anchor="middle" x="402.5" y="-62" font-family="Helvetica,sans-Serif" font-size="10.00">romem.h</text>
</a>
</g>
</g>
<!-- Node1&#45;&gt;Node11 -->
<g id="edge11_Node000001_Node000011" class="edge">
<title>Node1&#45;&gt;Node11</title>
<g id="a_edge11_Node000001_Node000011"><a xlink:title=" ">
<path fill="none" stroke="#63b8ff" d="M315.15,-165.02C339.12,-158.75 365.57,-147.87 383.5,-129 395.01,-116.89 399.57,-98.09 401.37,-84.08"/>
<polygon fill="#63b8ff" stroke="#63b8ff" points="404.86,-84.38 402.3,-74.1 397.89,-83.73 404.86,-84.38"/>
</a>
</g>
</g>
<!-- Node12 -->
<g id="Node000012" class="node">
<title>Node12</title>
<g id="a_Node000012"><a xlink:href="transport_8h.html" target="_top" xlink:title="Definitions for EBS transports.">
<polygon fill="white" stroke="#666666" points="521.5,-74 451.5,-74 451.5,-55 521.5,-55 521.5,-74"/>
<text text-anchor="middle" x="486.5" y="-62" font-family="Helvetica,sans-Serif" font-size="10.00">transport.h</text>
</a>
</g>
</g>
<!-- Node1&#45;&gt;Node12 -->
<g id="edge13_Node000001_Node000012" class="edge">
<title>Node1&#45;&gt;Node12</title>
<g id="a_edge13_Node000001_Node000012"><a xlink:title=" ">
<path fill="none" stroke="#63b8ff" d="M299.06,-164.97C328.74,-157.78 369.43,-145.94 402.5,-129 427.99,-115.94 453.75,-95.08 469.89,-80.86"/>
<polygon fill="#63b8ff" stroke="#63b8ff" points="472.31,-83.39 477.41,-74.1 467.63,-78.18 472.31,-83.39"/>
</a>
</g>
</g>
<!-- Node13 -->
<g id="Node000013" class="node">
<title>Node13</title>
<g id="a_Node000013"><a xlink:href="storage_8h.html" target="_top" xlink:title=" ">
<polygon fill="white" stroke="#666666" points="374.5,-129 312.5,-129 312.5,-110 374.5,-110 374.5,-129"/>
<text text-anchor="middle" x="343.5" y="-117" font-family="Helvetica,sans-Serif" font-size="10.00">storage.h</text>
</a>
</g>
</g>
<!-- Node1&#45;&gt;Node13 -->
<g id="edge15_Node000001_Node000013" class="edge">
<title>Node1&#45;&gt;Node13</title>
<g id="a_edge15_Node000001_Node000013"><a xlink:title=" ">
<path fill="none" stroke="#63b8ff" d="M272.16,-164.98C285.34,-156.77 305.53,-144.18 321.07,-134.49"/>
<polygon fill="#63b8ff" stroke="#63b8ff" points="322.96,-137.43 329.59,-129.17 319.26,-131.49 322.96,-137.43"/>
</a>
</g>
</g>
<!-- Node4 -->
<g id="Node000004" class="node">
<title>Node4</title>
<g id="a_Node000004"><a xlink:title=" ">
<polygon fill="#e0e0e0" stroke="#999999" points="399,-19 346,-19 346,0 399,0 399,-19"/>
<text text-anchor="middle" x="372.5" y="-7" font-family="Helvetica,sans-Serif" font-size="10.00">stdint.h</text>
</a>
</g>
</g>
<!-- Node3&#45;&gt;Node4 -->
<g id="edge3_Node000003_Node000004" class="edge">
<title>Node3&#45;&gt;Node4</title>
<g id="a_edge3_Node000003_Node000004"><a xlink:title=" ">
<path fill="none" stroke="#63b8ff" d="M302,-54.98C314.9,-46.84 334.6,-34.41 349.9,-24.76"/>
<polygon fill="#63b8ff" stroke="#63b8ff" points="352.17,-27.47 358.76,-19.17 348.43,-21.55 352.17,-27.47"/>
</a>
</g>
</g>
<!-- Node6 -->
<g id="Node000006" class="node">
<title>Node6</title>
<g id="a_Node000006"><a xlink:title=" ">
<polygon fill="#e0e0e0" stroke="#999999" points="71.5,-74 15.5,-74 15.5,-55 71.5,-55 71.5,-74"/>
<text text-anchor="middle" x="43.5" y="-62" font-family="Helvetica,sans-Serif" font-size="10.00">iomap.h</text>
</a>
</g>
</g>
<!-- Node5&#45;&gt;Node6 -->
<g id="edge5_Node000005_Node000006" class="edge">
<title>Node5&#45;&gt;Node6</title>
<g id="a_edge5_Node000005_Node000006"><a xlink:title=" ">
<path fill="none" stroke="#63b8ff" d="M86.08,-109.75C78.73,-102.11 67.87,-90.82 58.96,-81.56"/>
<polygon fill="#63b8ff" stroke="#63b8ff" points="61.22,-78.87 51.76,-74.09 56.18,-83.72 61.22,-78.87"/>
</a>
</g>
</g>
<!-- Node8&#45;&gt;Node3 -->
<g id="edge10_Node000008_Node000003" class="edge">
<title>Node8&#45;&gt;Node3</title>
<g id="a_edge10_Node000008_Node000003"><a xlink:title=" ">
<path fill="none" stroke="#63b8ff" d="M182.74,-109.98C203.2,-101.38 235.03,-87.99 258.43,-78.15"/>
<polygon fill="#63b8ff" stroke="#63b8ff" points="260.03,-81.27 267.89,-74.17 257.31,-74.82 260.03,-81.27"/>
</a>
</g>
</g>
<!-- Node9 -->
<g id="Node000009" class="node">
<title>Node9</title>
<g id="a_Node000009"><a xlink:title=" ">
<polygon fill="#e0e0e0" stroke="#999999" points="169.5,-74 89.5,-74 89.5,-55 169.5,-55 169.5,-74"/>
<text text-anchor="middle" x="129.5" y="-62" font-family="Helvetica,sans-Serif" font-size="10.00">application.h</text>
</a>
</g>
</g>
<!-- Node8&#45;&gt;Node9 -->
<g id="edge8_Node000008_Node000009" class="edge">
<title>Node8&#45;&gt;Node9</title>
<g id="a_edge8_Node000008_Node000009"><a xlink:title=" ">
<path fill="none" stroke="#63b8ff" d="M157.05,-109.75C152.49,-102.42 145.83,-91.73 140.21,-82.7"/>
<polygon fill="#63b8ff" stroke="#63b8ff" points="143.1,-80.73 134.85,-74.09 137.16,-84.43 143.1,-80.73"/>
</a>
</g>
</g>
<!-- Node10 -->
<g id="Node000010" class="node">
<title>Node10</title>
<g id="a_Node000010"><a xlink:title=" ">
<polygon fill="#e0e0e0" stroke="#999999" points="243.5,-74 187.5,-74 187.5,-55 243.5,-55 243.5,-74"/>
<text text-anchor="middle" x="215.5" y="-62" font-family="Helvetica,sans-Serif" font-size="10.00">stdarg.h</text>
</a>
</g>
</g>
<!-- Node8&#45;&gt;Node10 -->
<g id="edge9_Node000008_Node000010" class="edge">
<title>Node8&#45;&gt;Node10</title>
<g id="a_edge9_Node000008_Node000010"><a xlink:title=" ">
<path fill="none" stroke="#63b8ff" d="M171.25,-109.75C178.97,-102.03 190.4,-90.6 199.72,-81.28"/>
<polygon fill="#63b8ff" stroke="#63b8ff" points="202.31,-83.64 206.91,-74.09 197.36,-78.69 202.31,-83.64"/>
</a>
</g>
</g>
<!-- Node11&#45;&gt;Node4 -->
<g id="edge12_Node000011_Node000004" class="edge">
<title>Node11&#45;&gt;Node4</title>
<g id="a_edge12_Node000011_Node000004"><a xlink:title=" ">
<path fill="none" stroke="#63b8ff" d="M397.55,-54.75C393.44,-47.49 387.47,-36.95 382.4,-27.98"/>
<polygon fill="#63b8ff" stroke="#63b8ff" points="385.33,-26.07 377.36,-19.09 379.24,-29.52 385.33,-26.07"/>
</a>
</g>
</g>
<!-- Node12&#45;&gt;Node4 -->
<g id="edge14_Node000012_Node000004" class="edge">
<title>Node12&#45;&gt;Node4</title>
<g id="a_edge14_Node000012_Node000004"><a xlink:title=" ">
<path fill="none" stroke="#63b8ff" d="M468.18,-54.98C449.84,-46.46 421.39,-33.23 400.27,-23.41"/>
<polygon fill="#63b8ff" stroke="#63b8ff" points="401.69,-20.21 391.15,-19.17 398.74,-26.56 401.69,-20.21"/>
</a>
</g>
</g>
<!-- Node13&#45;&gt;Node3 -->
<g id="edge17_Node000013_Node000003" class="edge">
<title>Node13&#45;&gt;Node3</title>
<g id="a_edge17_Node000013_Node000003"><a xlink:title=" ">
<path fill="none" stroke="#63b8ff" d="M334.42,-109.75C326.41,-102.03 314.54,-90.6 304.88,-81.28"/>
<polygon fill="#63b8ff" stroke="#63b8ff" points="307.04,-78.51 297.41,-74.09 302.19,-83.55 307.04,-78.51"/>
</a>
</g>
</g>
<!-- Node13&#45;&gt;Node4 -->
<g id="edge16_Node000013_Node000004" class="edge">
<title>Node13&#45;&gt;Node4</title>
<g id="a_edge16_Node000013_Node000004"><a xlink:title=" ">
<path fill="none" stroke="#63b8ff" d="M345.87,-109.66C350.59,-92.09 361.24,-52.45 367.54,-28.95"/>
<polygon fill="#63b8ff" stroke="#63b8ff" points="370.96,-29.72 370.18,-19.16 364.2,-27.91 370.96,-29.72"/>
</a>
</g>
</g>
</g>
</svg>
