<?xml version="1.0" encoding="UTF-8" standalone="no"?>
<!DOCTYPE svg PUBLIC "-//W3C//DTD SVG 1.1//EN"
 "http://www.w3.org/Graphics/SVG/1.1/DTD/svg11.dtd">
<!-- Generated by graphviz version 2.43.0 (0)
 -->
<!-- Title: platform/platform.h Pages: 1 -->
<svg width="471pt" height="192pt"
 viewBox="0.00 0.00 471.00 192.00" xmlns="http://www.w3.org/2000/svg" xmlns:xlink="http://www.w3.org/1999/xlink">
<g id="graph0" class="graph" transform="scale(1 1) rotate(0) translate(4 188)">
<title>platform/platform.h</title>
<!-- Node1 -->
<g id="Node000001" class="node">
<title>Node1</title>
<g id="a_Node000001"><a xlink:title=" ">
<polygon fill="#999999" stroke="#666666" points="288,-184 175,-184 175,-165 288,-165 288,-184"/>
<text text-anchor="middle" x="231.5" y="-172" font-family="Helvetica,sans-Serif" font-size="10.00">platform/platform.h</text>
</a>
</g>
</g>
<!-- Node2 -->
<g id="Node000002" class="node">
<title>Node2</title>
<g id="a_Node000002"><a xlink:href="config_8h.html" target="_top" xlink:title=" ">
<polygon fill="white" stroke="#666666" points="55,-129 0,-129 0,-110 55,-110 55,-129"/>
<text text-anchor="middle" x="27.5" y="-117" font-family="Helvetica,sans-Serif" font-size="10.00">config.h</text>
</a>
</g>
</g>
<!-- Node1&#45;&gt;Node2 -->
<g id="edge1_Node000001_Node000002" class="edge">
<title>Node1&#45;&gt;Node2</title>
<g id="a_edge1_Node000001_Node000002"><a xlink:title=" ">
<path fill="none" stroke="#63b8ff" d="M198.72,-164.98C162.23,-155.5 103.34,-140.2 65.03,-130.25"/>
<polygon fill="#63b8ff" stroke="#63b8ff" points="65.84,-126.84 55.28,-127.72 64.08,-133.62 65.84,-126.84"/>
</a>
</g>
</g>
<!-- Node3 -->
<g id="Node000003" class="node">
<title>Node3</title>
<g id="a_Node000003"><a xlink:href="types_8h.html" target="_top" xlink:title=" ">
<polygon fill="white" stroke="#666666" points="463,-74 410,-74 410,-55 463,-55 463,-74"/>
<text text-anchor="middle" x="436.5" y="-62" font-family="Helvetica,sans-Serif" font-size="10.00">types.h</text>
</a>
</g>
</g>
<!-- Node1&#45;&gt;Node3 -->
<g id="edge2_Node000001_Node000003" class="edge">
<title>Node1&#45;&gt;Node3</title>
<g id="a_edge2_Node000001_Node000003"><a xlink:title=" ">
<path fill="none" stroke="#63b8ff" d="M288.21,-166.85C337.18,-159.95 402.92,-147.55 421.5,-129 433.14,-117.38 436.4,-98.52 437.04,-84.36"/>
<polygon fill="#63b8ff" stroke="#63b8ff" points="440.55,-84.27 437.11,-74.25 433.55,-84.23 440.55,-84.27"/>
</a>
</g>
</g>
<!-- Node5 -->
<g id="Node000005" class="node">
<title>Node5</title>
<g id="a_Node000005"><a xlink:href="cpu_8h.html" target="_top" xlink:title="Definitions for EBS CPU controls.">
<polygon fill="white" stroke="#666666" points="116,-129 73,-129 73,-110 116,-110 116,-129"/>
<text text-anchor="middle" x="94.5" y="-117" font-family="Helvetica,sans-Serif" font-size="10.00">cpu.h</text>
</a>
</g>
</g>
<!-- Node1&#45;&gt;Node5 -->
<g id="edge4_Node000001_Node000005" class="edge">
<title>Node1&#45;&gt;Node5</title>
<g id="a_edge4_Node000001_Node000005"><a xlink:title=" ">
<path fill="none" stroke="#63b8ff" d="M209.49,-164.98C186.79,-156.2 151.18,-142.43 125.61,-132.53"/>
<polygon fill="#63b8ff" stroke="#63b8ff" points="126.59,-129.16 116.01,-128.82 124.07,-135.69 126.59,-129.16"/>
</a>
</g>
</g>
<!-- Node7 -->
<g id="Node000007" class="node">
<title>Node7</title>
<g id="a_Node000007"><a xlink:href="asm_8h.html" target="_top" xlink:title="Helper Definitions for ASM files.">
<polygon fill="white" stroke="#666666" points="220,-129 173,-129 173,-110 220,-110 220,-129"/>
<text text-anchor="middle" x="196.5" y="-117" font-family="Helvetica,sans-Serif" font-size="10.00">asm.h</text>
</a>
</g>
</g>
<!-- Node1&#45;&gt;Node7 -->
<g id="edge6_Node000001_Node000007" class="edge">
<title>Node1&#45;&gt;Node7</title>
<g id="a_edge6_Node000001_Node000007"><a xlink:title=" ">
<path fill="none" stroke="#63b8ff" d="M225.72,-164.75C220.88,-157.42 213.82,-146.73 207.86,-137.7"/>
<polygon fill="#63b8ff" stroke="#63b8ff" points="210.6,-135.5 202.17,-129.09 204.76,-139.36 210.6,-135.5"/>
</a>
</g>
</g>
<!-- Node8 -->
<g id="Node000008" class="node">
<title>Node8</title>
<g id="a_Node000008"><a xlink:href="debug_8h.html" target="_top" xlink:title=" ">
<polygon fill="white" stroke="#666666" points="294.5,-129 238.5,-129 238.5,-110 294.5,-110 294.5,-129"/>
<text text-anchor="middle" x="266.5" y="-117" font-family="Helvetica,sans-Serif" font-size="10.00">debug.h</text>
</a>
</g>
</g>
<!-- Node1&#45;&gt;Node8 -->
<g id="edge7_Node000001_Node000008" class="edge">
<title>Node1&#45;&gt;Node8</title>
<g id="a_edge7_Node000001_Node000008"><a xlink:title=" ">
<path fill="none" stroke="#63b8ff" d="M237.28,-164.75C242.12,-157.42 249.18,-146.73 255.14,-137.7"/>
<polygon fill="#63b8ff" stroke="#63b8ff" points="258.24,-139.36 260.83,-129.09 252.4,-135.5 258.24,-139.36"/>
</a>
</g>
</g>
<!-- Node9 -->
<g id="Node000009" class="node">
<title>Node9</title>
<g id="a_Node000009"><a xlink:href="romem_8h.html" target="_top" xlink:title=" ">
<polygon fill="white" stroke="#666666" points="234,-74 173,-74 173,-55 234,-55 234,-74"/>
<text text-anchor="middle" x="203.5" y="-62" font-family="Helvetica,sans-Serif" font-size="10.00">romem.h</text>
</a>
</g>
</g>
<!-- Node1&#45;&gt;Node9 -->
<g id="edge8_Node000001_Node000009" class="edge">
<title>Node1&#45;&gt;Node9</title>
<g id="a_edge8_Node000001_Node000009"><a xlink:title=" ">
<path fill="none" stroke="#63b8ff" d="M207.72,-164.92C192.07,-157.89 172.83,-146.25 163.5,-129 154.33,-112.04 169.12,-93.47 183.24,-80.82"/>
<polygon fill="#63b8ff" stroke="#63b8ff" points="185.85,-83.2 191.29,-74.11 181.37,-77.83 185.85,-83.2"/>
</a>
</g>
</g>
<!-- Node10 -->
<g id="Node000010" class="node">
<title>Node10</title>
<g id="a_Node000010"><a xlink:href="transport_8h.html" target="_top" xlink:title="Definitions for EBS transports.">
<polygon fill="white" stroke="#666666" points="353.5,-74 283.5,-74 283.5,-55 353.5,-55 353.5,-74"/>
<text text-anchor="middle" x="318.5" y="-62" font-family="Helvetica,sans-Serif" font-size="10.00">transport.h</text>
</a>
</g>
</g>
<!-- Node1&#45;&gt;Node10 -->
<g id="edge10_Node000001_Node000010" class="edge">
<title>Node1&#45;&gt;Node10</title>
<g id="a_edge10_Node000001_Node000010"><a xlink:title=" ">
<path fill="none" stroke="#63b8ff" d="M254.36,-164.96C270.48,-157.77 291.3,-145.93 303.5,-129 312.92,-115.93 316.5,-97.79 317.83,-84.25"/>
<polygon fill="#63b8ff" stroke="#63b8ff" points="321.33,-84.37 318.49,-74.16 314.34,-83.91 321.33,-84.37"/>
</a>
</g>
</g>
<!-- Node11 -->
<g id="Node000011" class="node">
<title>Node11</title>
<g id="a_Node000011"><a xlink:href="storage_8h.html" target="_top" xlink:title=" ">
<polygon fill="white" stroke="#666666" points="412.5,-129 350.5,-129 350.5,-110 412.5,-110 412.5,-129"/>
<text text-anchor="middle" x="381.5" y="-117" font-family="Helvetica,sans-Serif" font-size="10.00">storage.h</text>
</a>
</g>
</g>
<!-- Node1&#45;&gt;Node11 -->
<g id="edge12_Node000001_Node000011" class="edge">
<title>Node1&#45;&gt;Node11</title>
<g id="a_edge12_Node000001_Node000011"><a xlink:title=" ">
<path fill="none" stroke="#63b8ff" d="M255.6,-164.98C280.38,-156.23 319.2,-142.51 347.19,-132.62"/>
<polygon fill="#63b8ff" stroke="#63b8ff" points="348.7,-135.8 356.96,-129.17 346.37,-129.2 348.7,-135.8"/>
</a>
</g>
</g>
<!-- Node4 -->
<g id="Node000004" class="node">
<title>Node4</title>
<g id="a_Node000004"><a xlink:title=" ">
<polygon fill="#e0e0e0" stroke="#999999" points="376,-19 323,-19 323,0 376,0 376,-19"/>
<text text-anchor="middle" x="349.5" y="-7" font-family="Helvetica,sans-Serif" font-size="10.00">stdint.h</text>
</a>
</g>
</g>
<!-- Node3&#45;&gt;Node4 -->
<g id="edge3_Node000003_Node000004" class="edge">
<title>Node3&#45;&gt;Node4</title>
<g id="a_edge3_Node000003_Node000004"><a xlink:title=" ">
<path fill="none" stroke="#63b8ff" d="M422.52,-54.98C409.03,-46.77 388.37,-34.18 372.46,-24.49"/>
<polygon fill="#63b8ff" stroke="#63b8ff" points="374.09,-21.38 363.73,-19.17 370.45,-27.36 374.09,-21.38"/>
</a>
</g>
</g>
<!-- Node6 -->
<g id="Node000006" class="node">
<title>Node6</title>
<g id="a_Node000006"><a xlink:title=" ">
<polygon fill="#e0e0e0" stroke="#999999" points="122.5,-74 66.5,-74 66.5,-55 122.5,-55 122.5,-74"/>
<text text-anchor="middle" x="94.5" y="-62" font-family="Helvetica,sans-Serif" font-size="10.00">iomap.h</text>
</a>
</g>
</g>
<!-- Node5&#45;&gt;Node6 -->
<g id="edge5_Node000005_Node000006" class="edge">
<title>Node5&#45;&gt;Node6</title>
<g id="a_edge5_Node000005_Node000006"><a xlink:title=" ">
<path fill="none" stroke="#63b8ff" d="M94.5,-109.75C94.5,-102.8 94.5,-92.85 94.5,-84.13"/>
<polygon fill="#63b8ff" stroke="#63b8ff" points="98,-84.09 94.5,-74.09 91,-84.09 98,-84.09"/>
</a>
</g>
</g>
<!-- Node9&#45;&gt;Node4 -->
<g id="edge9_Node000009_Node000004" class="edge">
<title>Node9&#45;&gt;Node4</title>
<g id="a_edge9_Node000009_Node000004"><a xlink:title=" ">
<path fill="none" stroke="#63b8ff" d="M226.96,-54.98C251.08,-46.23 288.87,-32.51 316.1,-22.62"/>
<polygon fill="#63b8ff" stroke="#63b8ff" points="317.41,-25.87 325.62,-19.17 315.02,-19.29 317.41,-25.87"/>
</a>
</g>
</g>
<!-- Node10&#45;&gt;Node4 -->
<g id="edge11_Node000010_Node000004" class="edge">
<title>Node10&#45;&gt;Node4</title>
<g id="a_edge11_Node000010_Node000004"><a xlink:title=" ">
<path fill="none" stroke="#63b8ff" d="M323.62,-54.75C327.86,-47.49 334.03,-36.95 339.28,-27.98"/>
<polygon fill="#63b8ff" stroke="#63b8ff" points="342.45,-29.49 344.48,-19.09 336.41,-25.95 342.45,-29.49"/>
</a>
</g>
</g>
<!-- Node11&#45;&gt;Node3 -->
<g id="edge14_Node000011_Node000003" class="edge">
<title>Node11&#45;&gt;Node3</title>
<g id="a_edge14_Node000011_Node000003"><a xlink:title=" ">
<path fill="none" stroke="#63b8ff" d="M390.58,-109.75C398.59,-102.03 410.46,-90.6 420.12,-81.28"/>
<polygon fill="#63b8ff" stroke="#63b8ff" points="422.81,-83.55 427.59,-74.09 417.96,-78.51 422.81,-83.55"/>
</a>
</g>
</g>
<!-- Node11&#45;&gt;Node4 -->
<g id="edge13_Node000011_Node000004" class="edge">
<title>Node11&#45;&gt;Node4</title>
<g id="a_edge13_Node000011_Node000004"><a xlink:title=" ">
<path fill="none" stroke="#63b8ff" d="M378.88,-109.66C373.68,-92.09 361.93,-52.45 354.97,-28.95"/>
<polygon fill="#63b8ff" stroke="#63b8ff" points="358.26,-27.75 352.07,-19.16 351.55,-29.74 358.26,-27.75"/>
</a>
</g>
</g>
</g>
</svg>
